# xmcd
#
# Track frame offsets:
#	150
#	13970
#	25389
#	36952
#	47211
#	59269
#	72328
#	84368
#	98069
#	112308
#	123025
#	135975
#
# Disc length: 1967 seconds
#
# Revision: 1
# Processed by: cddbd v1.5.2PL0 Copyright (c) Steve Scherf et al.
# Submitted via: audiograbber 1.83.01
#
DISCID=a207ad0c
DTITLE=Bing Crosby - White Christmas
DYEAR=1900
DGENRE=Koledy
TTITLE0=White Christmas
TTITLE1=The first Noel
TTITLE2=Jingle bells
TTITLE3=A
TTITLE4=B
TTITLE5=C
TTITLE6=D
TTITLE7=E
TTITLE8=F
TTITLE9=G
TTITLE10=H
TTITLE11=I
EXTD=
EXTT0=
EXTT1=
EXTT2=
EXTT3=
EXTT4=
EXTT5=
EXTT6=
EXTT7=
EXTT8=
EXTT9=
EXTT10=
EXTT11=
PLAYORDER=
